<svg viewBox="0 0 230 93" xmlns="http://www.w3.org/2000/svg"><g fill="#fff"><path d="m68.33 3.76c-3.2 0-6.39 1.13-9.87 2.54 0 .94 0 2.06-.09 3.29a148 148 0 0 1 -8.37 36.65c6.39-2.82 12.5-5.92 15.32-9.58 1-1.41 1.88-2.35 2.92-2.35a1.16 1.16 0 0 1 1.22 1.31c0 .85-.28 1.41-1.41 2.73-4.14 4.79-11.84 8.65-19.65 12.12-9.11 22.53-24.06 41.73-39.09 41.73a9.31 9.31 0 0 1 -9.31-9.49c0-13.06 22.28-27.35 44.36-34 5.64-14.2 9.4-29.8 9.5-40.23-7.34 3.74-14.86 8.16-21.81 8.16-3.1 0-7.42-1.51-7.42-4.05a2.11 2.11 0 0 1 2-2.25c2.16 0 3.29 2.25 5.73 2.25 6.49 0 13.72-4.41 21.24-8.08 0-1.41.19-3.1 2.07-3.1a2.49 2.49 0 0 1 2.13 1.22 29.92 29.92 0 0 1 11.47-2.63c3.85 0 5.92 1.88 5.92 4.42 0 3.76-2.54 9.68-5 9.68a.72.72 0 0 1 -.75-.66c0-.37.19-.66.66-1.5a9.57 9.57 0 0 0 1.22-5c.02-1.77-.73-3.18-2.99-3.18zm-64 78.95c0 3.48 1.79 5.73 5.74 5.73 11.93 0 25.83-18.23 32.51-35.52-17.39 5.26-38.26 19.92-38.26 29.79z"/><path d="m86.94 32.05c0 .75 0 2.91 1.51 2.91 3.85 0 7.52-2.63 8.46-2.63a1.61 1.61 0 0 1 1.69 1.6c0 .94-1.22 2.07-4.33 3.48a21.77 21.77 0 0 1 -8.17 1.59c-2 5.63-6.3 13.06-12.88 13.06-2.63 0-5.26-2-5.26-6 .04-8.75 7.33-17.06 13.91-17.06 3.48 0 5.07 1.64 5.07 3.05zm-15 14a2.49 2.49 0 0 0 2.35 2.73c3.67 0 8.46-8.46 8.46-11.28 0-.28-1.41-.75-1.41-2a18 18 0 0 1 .29-2.07c0-.19-.1-.28-.29-.28-4.08.03-9.44 6.85-9.44 12.9z"/><path d="m115.42 36.66c1.13-1.41 1.88-2.35 2.92-2.35a1.23 1.23 0 0 1 1.31 1.31c0 .85-.37 1.41-1.41 2.73-4.51 5.36-13 13.34-17.67 13.34-1.6 0-3.85-1.69-3.85-4.79 0-4.13 4.79-13.35 5.54-14.76 1-1.78 1.88-3.29 3.11-3.29.84 0 2.16.66 2.16 1.7s-.94 2-1.79 3.38c-2.07 3.57-4.89 10.15-4.89 12.22a1.72 1.72 0 0 0 1.7 1.88c2.72-.03 9.45-6.86 12.87-11.37zm1.88-22c0 2.26-2.54 3.57-3.66 3.57s-1.6-2-1.6-3.29a3.18 3.18 0 0 1 3.19-2.94c.94 0 2.07.78 2.07 2.66z"/><path d="m148.51 45.11c1.22-1.12 2.16-2.34 3.19-2.34a1.16 1.16 0 0 1 1.3 1.23c0 .84-.19 1.5-1.41 2.72-1.88 1.79-4.61 4.23-8.74 4.23-4.8 0-5.45-5.07-5.45-9.11 0-1.7.28-4.8.28-6.21 0-.84-.19-1.5-1.13-1.5-2.91 0-10.24 8.93-13.06 13.06-1.88 2.63-2.73 5.36-4.05 5.36s-2.82-.94-2.82-1.88c0-1.41 3.48-10.9 5.08-16.73 1.41-5.08 1.88-6.86 4.7-6.86a1.59 1.59 0 0 1 1.5 1.5c0 2.54-3.1 9.78-3.1 11 0 .28 0 .56.1.56 6.86-8.36 11.93-10.9 14.09-10.9a3.39 3.39 0 0 1 3.39 3.48c0 1.88-.57 6.58-.57 8.46 0 4 .66 6.2 2.64 6.2 1.33-.01 3.02-1.14 4.06-2.27z"/><path d="m209 36.66c1-1.41 1.88-2.35 2.82-2.35a1.18 1.18 0 0 1 1.31 1.31c0 .85-.37 1.41-1.41 2.73-4.51 5.36-10.9 12.69-15 12.69-3.29 0-3.95-2.64-3.95-4.89 0-1 .19-1.88.19-2.54-3.39 3.38-8.46 8.08-12.41 8.08a3.68 3.68 0 0 1 -3.95-3.85c0-4.7 5.74-9.77 5.74-15.13 0-2.16.56-3.76 2.34-3.76s2 1.31 2 2.91c0 5.55-5.83 12.22-5.83 15 0 .75.19 1.31 1.13 1.31 1.69 0 7.89-4.6 10.71-8.93 1.41-2.35 3.2-5.92 4.52-7.61.84-1.13 1.78-1.88 2.35-1.88 1.59 0 2 .94 2 1.79a5.86 5.86 0 0 1 -1.13 2.16 21 21 0 0 0 -3 5.83 21.49 21.49 0 0 0 -1.22 5.82c0 1.41.47 2.16 1.22 2.16 2.21-.05 8.13-6.34 11.57-10.85z"/><path d="m215 37.88c0-4.89 7.14-9.4 11.28-9.4 1.6 0 3.76 1.41 3.76 3.38s-1.22 5.27-3.1 5.27c-1 0-2-.57-2-1.6 0-1.6 1.41-1.88 1.41-2.26a1.42 1.42 0 0 0 -1.41-1.22c-1.31 0-5.73 2.54-5.73 5.26s6.79 2.26 6.79 8.28c0 3.1-2.73 6.48-8.18 6.48-3.29 0-5.83-2.35-5.83-4.61a2.22 2.22 0 0 1 2.01-2.35 1.52 1.52 0 0 1 1.69 1.41 2.32 2.32 0 0 0 2.64 2.54 3.31 3.31 0 0 0 3.28-3.47c.02-3.67-6.61-3.48-6.61-7.71z"/></g></svg>